<svg xmlns="http://www.w3.org/2000/svg" version="1.1" xmlns:xlink="http://www.w3.org/1999/xlink" width="1000" height="1000"><g clip-path="url(#SvgjsClipPath1159)"><rect width="1000" height="1000" fill="#ffffff"></rect><g transform="matrix(0.9,0,0,0.9,50,50)"><svg xmlns="http://www.w3.org/2000/svg" version="1.1" xmlns:xlink="http://www.w3.org/1999/xlink" width="1000" height="1000"><svg id="Layer_1" xmlns="http://www.w3.org/2000/svg" version="1.1" viewBox="0 0 1000 1000">
  <!-- Generator: Adobe Illustrator 29.2.1, SVG Export Plug-In . SVG Version: 2.1.0 Build 116)  -->
  <path d="M455.8,14.3c-35.9,4-78.9,14.2-113.4,26.8-91.5,33.3-174.6,97.1-231.7,178.1-9.8,13.8-13.2,17.5-20.7,22.1-11.6,7.5-25.7,14.5-51.1,25.7-24.1,10.6-30.6,14.5-34.4,20.9-5.5,8.9-2.2,18.9,10.8,31.9,7,6.9,26.1,20.9,30.8,22.5s-.9,8.3-4.2,19.2c-24.1,80.2-26.5,171.6-6.6,252.8,9.8,39.6,21.4,70.9,40,107.2,25.8,50.6,53.1,87.4,94.3,127.7,23.5,23,40.5,36.9,65.9,54.2,67.4,45.9,143.1,73.7,223.8,82.2,30.6,3.2,91.1,2.2,119.4-2.2,139.8-20.9,260.3-97,337.6-213.2,44.5-66.9,69.2-134.7,79.8-219.5,2.7-21.5,2.3-84.7-.7-107.6-14.3-110.8-59.4-205-135.2-283.4-75.6-77.9-172-127.3-281.5-143.6-26.4-4-95-5-123-1.9h0ZM516.6,50.6c-9.6,2.6-21.4,4.4-31.6,5-78.2,4.7-152.2,29.6-217.9,73-8.3,5.5-16.1,10.8-17.2,11.8s-5.6,2.2-9.8,2.7-8.6,1.3-10,1.7c-5.2,1.6,8.5-8.9,30.8-23.8,51.4-34.1,112.6-58.5,173.3-68.7,26.3-4.4,39.2-5.5,69.6-5.6h28l-15.2,3.9h0ZM637.3,60.7c14.5,2.6,35.3,7.7,36.7,9.2s-8.8.1-19.9-.1c-25.4-.7-33,1-54.1,12.2-23,12.5-27.3,14.3-35.7,15.4-9.8,1.3-25.7,6.7-34.4,11.9-9.3,5.5-22,17.8-29.7,29.1-5.7,8.5-7.9,10.5-16.9,14.9-5.6,2.7-17.5,9.9-26.4,15.8-15.5,10.3-17.1,11-33,14.6-19.8,4.4-28.1,8-39.7,17.4-12.6,10.2-19.8,14.9-36.3,23.4-18.9,9.9-23.7,14.1-37,32.7-14.6,20.4-17.2,23.1-36.4,36.6-9,6.5-21.8,16.8-28.3,23-10.2,9.8-12.1,11-14.6,9.8-1.6-.9-3.4-1.6-4.3-1.6-2.4,0-1.9,4.4.7,6.5,2,1.4,1.4,2.7-4.9,10.9-4,5-10.3,13.1-14.1,17.8-6.3,8-6.6,8.3-5.9,4,1.6-8.3,13.5-36.3,22-51.2,30-53.7,104.3-144.9,146.9-180.5,36.7-30.6,78.2-50.6,132.7-64.1,47.5-11.6,93.7-14.2,132.7-7.5h0ZM435,74.6c-5.2,1.9-15.5,6.3-23,9.9-7.5,3.4-19.1,8-25.8,10-32.3,10-64.3,24.5-93.8,42.3-16.8,10.2-17.1,10.3-22.7,8.8-3-1-5.2-2.3-4.7-3,1.3-2,29.1-19.1,45.2-27.7,31.1-16.5,71.2-31.4,104.9-38.7,8.9-2,17.6-4,19.2-4.3,8.6-2,9-.4.7,2.7h0ZM667.9,89.7c4.2.9,13.5,3.6,20.9,6,20.9,7.2,31.1,18.5,34.6,38.7,1.7,9.5.9,17.8-2.7,27.1-2.6,6.7-11.3,14.9-19.9,18.8-6.5,2.9-29.8,8.2-36.4,8.2s-1.1.7-1.1,1.6,4.9,1.4,16.2,1c19.2-.7,29.8-4.3,39.2-12.9,7.9-7.2,14.8-18.1,15.9-24.7.7-5,1-5.2,3.4-2.9,6.5,5.9,4.9,12.3-10.2,38.6-9.5,16.6-6.9,29,7.7,38.2,4,2.4,4.2,2.7,3.9,13.8-.6,19.1,7.6,33.7,22.8,41.3,6.9,3.6,20.8,4.4,28.4,1.7,4.9-1.7,6-1.7,6-.3,0,3.2-9,14.1-15.1,18.1-6.7,4.6-7.9,7.2-7,15.6.6,5.3.4,6-.9,3.9-1-1.6-1.9-7-2-12.2-.1-8.9,0-9.5,3.3-10.3,1.9-.4,4.2-1.9,5-3.3,2.3-3.6-1-5.9-13.5-9.6-14.1-4.2-16.8-5.6-26.4-14.5-7.6-6.9-20.9-22.8-20.9-25s.9-.7,1.9-.6c.9.1,3.9.1,6.5,0,7.6-.3,5.5-3.7-4-6.3-7.3-2.2-10.5-4.2-20.9-13.9-14.3-13.2-20.4-15.8-38-15.8s-12.1-.6-20.2-5c-4.9-2.7-12.1-6.5-15.8-8.2-3.7-1.9-6.9-3.7-6.9-4.2s6.3-3.3,14.1-6.3c15.8-6.2,27.5-12.1,27.5-13.9s-.4-1.4-12.1,1c-15.4,3.3-36.6,10.5-46.3,15.8-13.1,7.2-26.1,10.8-38.9,10.8h-10.9l6.7-6.3c3.7-3.7,8.9-10.9,11.9-16.9,6.5-12.8,16.2-28.1,20.4-31.9,3.4-3,4.2-6.6,1.3-6.6s-10.8,6.3-14.9,11.8c-1.9,2.6-6.2,9.2-9.5,14.8-12.5,21.4-28.4,32.9-52.2,37.4-13.8,2.7-20.8,1.9-38-4.3-10.3-3.7-12.6-5.2-10.5-5.9,9-3.3,26.5-12.2,26.5-13.5,0-2.2-.6-2-13.5,2-6.2,2-11.6,3.4-11.9,3.2-1.3-1.4,14.3-12.9,24.1-17.6,15.5-7.6,19.5-11,24.4-21.4,5.7-12.3,15.2-20.8,27.7-24.8,15.8-5.2,17.2-4.4,8,4.4-4.3,4.2-13.3,13.2-20.1,20.2s-15.5,15.2-19.7,18.2c-9,6.7-10.2,8.5-5.7,8.5,8.9,0,20.9-8.6,49.1-35.4,28-26.5,39-34.7,59.4-43.9,12.1-5.3,30.1-6.2,49.4-2.3h0ZM751.1,102.1c4.9,2.3,11,5.9,13.6,8.2,4.7,3.9,10.3,13.2,10.3,16.9s2.9,7.5,6.5,14.3c3.6,6.9,6.5,13.8,6.5,15.4s.7,3.2,1.4,3.6c.9.6,1.4-1.9,1.4-6.5v-7.3l5.9,4.7c6.7,5.5,17.1,19.2,21.4,28.6,3.3,7.5,3.7,18.1.7,22.4-1.3,1.7-4.4,3.4-7.6,4-7.3,1.1-15.2,7.7-22,18.4-6.3,9.8-7.3,17.9-3.3,25.5,1.1,2.4,1.9,5.5,1.3,6.7-.6,1.9-.4,2,.7.9s4.4-1.3,8.5-.9c6.6.6,7.3.3,13.6-5.5,6.7-6.2,10.2-13.6,9.2-20.1-.7-5.6-3.3-4.7-6.7,2.4-2.4,5.2-3.6,6.2-4.6,4.6-2.9-4.4-1.4-11.2,3.6-16.8l4.9-5.3,4,3.6c10.5,9.6,10,28.1-.7,37.9-3.6,3.3-3.7,6-.6,12.3,1.3,2.7,2.4,7.9,2.6,11.8.3,6.7.7,7.5,9.8,16.1,7.9,7.6,9.8,10.2,11.8,17.4,2.2,7.2,2.3,10,.9,19.9-.9,6.5-1.6,17.5-1.6,24.7,0,11.2-.4,13.8-3.3,17.9-1.7,2.6-4.7,5.2-6.7,5.7-5.6,1.6-15.9,1.4-22-.3-6.5-1.7-8.8-.7-6.7,2.9,2,3.9,10.3,7.3,17.6,7.3s9.8,3.2,6.6,20.7c-.9,4.9-1.9,10.2-2.2,11.8-.9,5-7,6.6-17.8,4.3-6.7-1.4-10.3-1.6-12.9-.4-2,.9-7,2.3-11,3.2-6.9,1.4-7.6,1.4-7.6-.9s1.6-2.9,4.2-3.4c2.4-.4,6.6-2.7,9.5-5l5.3-4.2,4.9,2.6c2.7,1.6,6.3,2.4,7.9,2,8.3-2.3,11.6-17.5,5-24.1s-7.2-4.4-11.8-5.9c-9.9-2.9-20.2-11.5-18.7-15.6.9-2.4,1.1-2.3,4.4.7,5.9,5.6,6,1.7.4-8.8-3.9-6.7-5.5-11.6-5.5-15.6v-6l5.9,5c9.8,8.5,23.1,10,37.6,4.3,2.9-1.1,5.3-2.7,5.3-3.3s-6.3-1.3-14.1-1.7c-11.3-.4-14.9-1.1-19.2-3.7-6.3-3.9-7.9-7.9-5-12.2s2.9-6.6,3.7-10.9c1-4.4,4-11.3,7.2-16.1,7.6-11.3,8.6-17.9,4.2-26.8l-3.3-6.7-17.2-.7c-18.9-.9-22.7-2.2-30.3-10.3-6.7-7-9.6-13.8-9.8-22.7-.1-11.3,1.7-13.2,5.2-5.5,3.2,6.9,7.9,12.6,10.6,12.6s1-1.9-1.1-6.9c-4.2-9-4.4-27.3-.7-34.9,8.8-17.6,32.4-26.5,51.1-19.1,7.3,2.9,8.8,1.9,5-3.4-5.2-6.9-11.3-9.2-23.5-8.5-18.8,1-33.9,10.5-41,26-1.9,4-3.4,9.3-3.4,11.8,0,7-3.2,8.6-8.6,4.6-6.7-4.9-10.6-12.1-10.6-19.7.1-9.3,2.7-13.9,19.8-34.3,7.7-9.2,10.9-16.8,10.9-26.1,0-16.2-12.9-33.7-28.3-38.2-4.3-1.3-9.3-1.9-11.2-1.4-2,.6-4,0-5.2-1.4-1.7-2.2-.7-2.3,12.1-1.6,11.5.7,15.8,1.6,23,5h0ZM327.1,145c-4.3,4.6-9.9,10.9-12.2,14.2-5.3,7.6-11.5,14.9-12.5,14.9s-.9-.7-.9-1.7-1.7-3.9-3.7-6.5c-3.2-4.2-3.4-5.3-1.9-6.9,2.2-2,37.2-22.2,38.5-22.2s-2.9,3.7-7.3,8.2h0ZM267.6,162.4c8.9,4,17.1,11.8,20.9,20.2l3.4,7-12.6,18.2c-8.8,12.5-13.1,17.6-14.2,16.5s-5.2-1.4-9.9-1.4h-8.5l4.6-3.7c3.9-3.3,4.2-4.2,2.6-5.9-1.7-1.6-3-1.6-8.6,1-4.9,2.2-8.2,2.6-12.9,2-5.2-.7-6.6-.4-7.3,1.4-1.1,2.7,3.6,8,7,8s4.2,1.6,6.6,3.6c2.3,2,6,3.6,8,3.6s4.4,1.1,5.6,3.7c2.2,4.4,2.6,3.4-11.2,20.7-6,7.5-13.9,18.1-17.8,23.7-3.7,5.5-7.3,10-8,9.9-3.6-.4-4.2-.7-4.2-1.9s1.3-1.6,3-2c5.9-1.6,1.9-4.6-7-5.5-4.9-.4-9.3-1.3-9.8-1.7s1.7-1.6,5-2.4c4.3-1.1,5.9-2.3,5.9-4.3s-1.3-3-5.3-3.6c-8.6-1.3-23.4-5.3-24.1-6.3-.3-.6,2.6-1.1,6.5-1.3,7.7-.1,12.9-2.2,12.9-5.2s-24-6.2-27.8-4.7c-4,1.6-2.7,6.7,2.2,8.8,3.6,1.6,4,2,2,2.9-1.7.6-2.3,2-1.9,4.3.7,3.2-1.3,4.4-27.4,17.1-29.6,14.5-46.5,20.9-65.4,25.4-23.7,5.6-46.8,5-55.2-1.3-4.4-3.3-5.5-9.5-1.9-13.3,1.3-1.6,12.9-7.9,25.5-14.1,43.3-21.2,65.6-36,118.4-78.9,39.9-32.3,48.5-37.9,66.7-42.6,9.6-2.4,26.1-1.4,34.1,2.2h0ZM860.6,211.6c91.4,109.8,125.1,260,89.7,399.6-44,173.5-188,306.5-363.9,336.2-30,5-49.4,6.3-87.5,5.5-58.7-1.3-102.3-9.9-155-30.7-130.4-51.7-231.3-162.1-269.7-295.9-12.8-44.3-16.9-75.2-17.1-124.3-.1-39.2,1-53.1,7-86.1,2.9-15.5,14.2-59.1,15.6-60.7.3-.1,2.9.7,5.7,2.2,3.7,1.7,5,3.2,4.4,4.6-5.3,13.5-14.3,54.4-18.2,81.9-2.6,18.2-2.4,89.1,0,107.6,11.3,80.6,39.2,149.2,85.8,211.3,72.5,96.4,180.6,159.1,299.6,173.9,133.6,16.5,266.9-28.6,363.6-123.3,126.4-123.5,166.7-307.1,104.3-473.6-16.1-42.9-41-85.7-72.3-123.7-13.2-16.1-17.5-23.7-17.4-30.6.1-2.4,9.9,7.7,25.3,26h0ZM450.8,206.2c10.2,8,14.6,15.5,13.8,23.2-.9,7-5,10.8-11.9,10.8s-13.3,6.5-13.3,13.5-1.9,6.6-4.9-.4c-3.2-6.7-2.7-20.1.6-22.7,1.7-1.3,1.9-2,.4-3.4-3.2-3.2-10.8-2-23.2,3.6-11.5,5.3-12.6,5.5-22.2,4.6l-10-1,3.4,3.7c4.2,4.4,13.1,7,20.5,5.9,3-.6,9.9-3.2,15.2-5.7l9.8-4.9-3.4,6.5c-1.9,3.7-3.3,8.2-3.3,9.9,0,2.6-1.1,3.6-5,4.7-2.7.7-7,3-9.5,5s-5,3.7-5.7,3.7c-2.2,0-9.9-4.2-16.6-9-5-3.6-6.9-4-11-3.3-5.6,1-6.7,3.3-2.6,4.7,1.3.6,5,3.2,8.2,5.7,3.2,2.7,7,5.2,8.6,5.6,2.7.7,2.9,1.6,2.2,12.6-.4,6.9-1.6,12.9-2.7,14.2-1.7,2.2-2.2,2.2-4.7-1.1-3-4-6.5-4.6-10.3-1.7-2.7,2-3,4.9-1.3,13.9,1,5,1.9,6.5,4,6.5s3.3-1.4,4.3-4.7c1.7-5.7,3-5.9,4.2-.1,1.7,9,.9,13.5-3.7,19.9-4.3,5.9-4.9,7.7-6.3,23-1.9,20.4-5.6,29.3-16.2,39.7-9.3,9.3-24.8,17.5-34.9,18.7l-7.6.7,6.5-4.2c7.5-5,13.8-10.9,23.5-22.4,9.9-11.8,7.5-12.9-3.4-1.6-5.2,5.3-11.2,11-13.6,12.8-7.2,5.6-19.8,8.3-38.3,8.5-14.8.1-20.2,1-18.2,2.9.3.3,5.3,1.3,11,2,6.7,1,12.8,2.9,17.1,5.5l6.6,3.9-4.2,2.2c-2.3,1.1-5.9,3.6-7.9,5.6l-3.7,3.4-1.7-4.2c-1.7-4-6.7-7.5-10.9-7.5-6.7,0-13.6,7.3-13.6,14.6,0,2.1-1.3,1.8-3.7-.9-3-3.3-4-3.7-5-2.2-1.4,2.4-.3,6.7,2.6,10.2,3.4,3.9,12.6,6.2,22.8,5.6,1.7-.1,7.2-3.7,12.2-8.2,9.9-8.9,14.5-11.3,24.7-12.8,8-1.3,8.2-.6,3.2,9.5-4.7,9.2-13.6,17.8-21.2,20.5l-6,2h5.3c3,.3,9-1.1,13.5-2.7,8.6-3.3,18.2-11.8,29.8-26.3l5.7-7,1.3,3.7c2.3,6.9-1,14.1-10,21.7-14.9,12.6-22.1,16.5-34.1,19.1-9.5,1.9-13.1,2-23.5.6-27.1-3.9-39.5-14.9-41.3-37.2-1.4-16.9,4-26.1,15.5-26.1s8.6-2.6,4-5.9c-7.9-5.9-8.5-6.9-8.5-14.1s-2-10.5-4.7-4.9c-3.2,6.2-4.2,12.5-2.6,16.5,1.1,3.2.9,4.3-2.2,7-6.3,5.9-9.2,14.1-9.2,26.1s-.1,11-3.3,11-6.6,1.7-10.8,3.7c-6.6,3.3-7.9,4.7-12.1,13.2-4.7,10.2-6.9,22.2-4.2,23.8,1,.7,1.6-.1,1.6-2s2-7.7,3.6-9.8c.1-.3,2.3,1.6,4.7,4s5.7,4.3,9.2,4.3c6.6,0,16.6-3.6,21.8-7.6l4.2-3.4,5.5,3c3.2,1.7,5.6,3.4,5.6,4s-2.2,3.4-4.6,6.3c-4.3,4.9-22.2,14.9-26.7,14.9s-1.6.6-1.1,1.3c2.3,3.6,26-6,36.2-14.8,5.3-4.6,6.3-4.9,11.2-3.7,3,.6,5.7,1.4,6,1.9,1,1-15.4,11.8-26.3,17.4-14.8,7.3-30.6,12.3-39.2,12.3s-7.2.6-6.9,1.7c2,5.9,25,4.7,46.3-2.4,1.7-.6,0,1.7-4,5.5-20.5,19.5-37.2,27.1-52.4,24.1-5.9-1.1-9.2-2.7-11.9-5.7-4.2-4.6-6.3-13.5-4.9-20.1.9-3.9,1.3-4.2,5.9-3.4,5.9,1,6.2-.4,1.3-7.6-2-2.9-4.2-7.5-4.9-10-1.6-5.7.1-19.8,3.4-29.1,2-6,11.2-19.5,18.7-28,3.4-3.7,3.9-3.9,6.3-1.7,2.9,2.6,11.6,4.7,11.6,2.7s-2-3.2-4.3-5.5c-6.3-6-11.6-16.1-12.5-23.8-1-8.6,2.6-16.5,12.3-27.7,4.2-4.6,9.6-12.6,12.2-17.9,5.5-10.5,8.5-13.8,19.1-20.7,4-2.6,10.6-8.6,14.6-13.5,4-5,9.3-10,11.8-11.3,2.4-1.1,4-1.6,3.6-.7-.6.9-1.3,2.9-1.6,4.3-.4,2.3.6,2,6-2.2,8.8-6.7,15.8-10.2,25.8-12.8,25.1-6.6,41.2,3.4,46.5,29,1,4.9,2.3,8.6,3,8.2,2-1.3,1.3-18.5-1-25.1-4.7-13.2-16.1-22.4-29.7-24.1l-7.5-.9,12.8-7.5c13.8-8,20.7-9.5,26-5.5,2.2,1.6,2.3,2,.6,2.2-1.3,0-3-.7-4-1.7s-2.2-1.3-3.3-.1c-2.3,2.3-.3,7.3,3.9,10,7.2,4.7,20.9-3.4,18.5-10.9-2.3-7.5-15.2-11.8-26.1-8.9-6.6,1.7-23.5,12.6-29.3,18.7-3.3,3.6-12.8,8.3-12.8,6.5s11-14.9,13.6-15.5c1.7-.4,7.6-3.4,13.1-6.6,6.2-3.6,14.1-6.6,20.9-8.2,6.2-1.4,11.2-3,11.2-3.6,0-3.7-24.7-1.9-33.4,2.7-2.3,1.1-4.4,1.7-4.7,1.4-1.6-1.6,10.9-9.9,20.9-14.1,18.5-7.7,21.8-9.9,35.9-23.5,16.9-16.4,19.2-17.9,26.8-17.9s7.2.9,11.9,5.2c4.9,4.4,6.2,4.9,7.9,3.4,1.6-1.3,2-3.2,1.4-5.9-.9-3.6-.6-4,3.9-4.6,2.6-.3,5-.6,5.5-.7s4.3,2.6,8.6,5.9h0ZM624.8,210.2c3.7,1.4,12.3,6.3,19.2,10.6,6.9,4.3,13.1,7.9,13.8,7.9s3.3.9,5.7,2c2.6,1.1,7.6,2.3,11.3,2.7,5.5.6,8.5,2,15.8,7.9,12.5,9.9,21.2,19.5,26.8,29.7,5.7,10.2,10.5,15.6,17.4,19.7,13.8,8.3,19.8,17.9,25.1,40.6,4.6,19.2,4.4,21.8-.3,12.2-5.5-11-15.5-20.8-23.4-23-6.2-1.7-21.4-1.3-33,.7-4.9,1-5.2.7-7.6-4.9-4.6-10.2-9.6-10.6-17.4-1.6-8.3,9.9-8,24.7.6,46.3,2.3,5.9,6,17.2,8,25,3.7,13.8,3.7,14.5,2,30.8-1,9.2-1.4,17.9-1.1,19.5,1.3,4.6-1.4,15.8-4.7,20.5-3,4.3-1.9,5.3,3.2,2.7,6-3.3,8.8-14.8,10.6-45.9.9-12.8.6-16.8-2-27.1-1.7-6.6-2.7-12.3-2.3-12.8.4-.6,5.5-1.1,11-1.4l10-.6-2.4,3.7c-7.2,10.9,7,31.7,23,33.4,5.6.7,6.7.3,10.8-3.6,4.9-4.9,5.3-8,2-13.2-2.2-3.4-2-3.3,1.3.3,2,2.2,3.9,4.7,4.3,5.7.3,1,1.1,1.3,1.9.7,1.9-1.9-8-19.4-14.8-26.3-8.5-8.5-16.9-11-34.1-10.3-7.3.1-13.2.1-12.9-.1s4.3-1.4,8.9-2.4c11-2.6,22.8-2.6,31,.3,7.6,2.6,19.2,12.3,25.3,21.2,4.9,7,9.5,22.4,9.3,30.3-.1,3.2-.3,10.9-.4,17.2l-.3,11.5-2.9-4c-3-4-6.2-5-7.7-2.4-.4.7,1.7,6.7,4.9,13.2,8.2,16.6,10.3,26.3,10.3,44.9s-2.3,31.4-8.2,51.2c-5.5,18.9-16.1,45.9-19.2,49.2-1.6,1.7-2.9,3.9-2.9,4.7,0,3.2-20.7,22.7-27.4,25.8-12.8,6.2-23.4,3.2-40.7-11-20.8-17.2-31-21.2-50.2-19.8-13.2,1-23,3.7-50.6,14.5-24.1,9.5-35.6,11.9-60.5,13.1-25.1,1-35.3,3.3-55.7,12.3-26,11.5-31.3,13.1-44.2,13.3-10.2.1-12.5-.3-19.9-4.2-6.6-3.3-9.2-5.7-11.8-10.6-3-5.7-3.3-8.2-3.3-25.3s-2.9-40.9-8.8-57.5c-3.9-10.9-4-12.6-3.7-33.7.3-21.7.1-22.4-4.4-35-5.6-15.8-5.7-20.5-.4-34,2.3-5.7,4.6-13.9,5-18.2,1.1-9,2.7-12.3,13.2-28,9.8-14.5,13.5-26,13.5-41.8s1-15.1,4.2-25.3c2.3-7.5,4.6-15.8,5-18.5.6-2.7,2.3-8.9,3.7-13.6s3-11.8,3.6-15.6c1-7.7,5.7-13.8,10.9-13.8s8,2.3,14.2,5c12.9,5.9,15.5,6,20.7,2,3.3-2.6,3.7-3.9,3.7-12.5v-9.6l9.2-8.2c9.3-8.3,13.6-15.4,15.1-24.1.9-4.7,1.3-5,8-6,6.5-.9,61.8-4.3,96.1-5.9,7.2-.4,15.2-1.6,17.9-2.7,5.7-2.4,11.9-1.9,22,1.9h0ZM861.7,244.5c43,59.5,69.6,127.4,79.2,203,2.9,22.4,3.2,72,.7,94-5.3,46.8-16.4,88.5-34.1,129.1-56.5,128.4-171.2,221.4-308.3,250.1-31.1,6.6-51.8,8.6-87.4,8.6-68,0-125.5-12.8-185.8-41.5-130.6-62.3-221.4-185.2-242.5-328.4-6-40.6-5.5-93.1,1.6-134.2,3.6-20.8,12.6-57.2,14.9-60,.3-.3,2.4.6,4.7,1.7l4.4,2.3-2.9,9.6c-20.8,71.2-22.4,147.6-4.7,219.2,11.8,47.9,31.6,92.5,59.5,134.2,32.1,47.9,77.9,92.4,126.1,122.7,88.4,55.4,194.1,75.9,297.9,58,171.3-29.6,309.3-166.4,341.3-338.5,9-48.5,8.8-109.3-.9-157.8-10-51.2-28.8-98.6-56.8-143.1-5-8.2-10.2-18.1-11.3-22.2-1.3-4-3.9-10.9-5.7-15.2-5.7-12.9-4.7-12.2,10,8.3h0ZM843.9,266.1c1.6,8.9,2.6,16.4,2.3,16.6-1.6,1.7-8-15.2-8-20.9s1.3-13.6,2.4-12.6c.3.4,1.7,7.9,3.3,16.9ZM181.6,275.5c1.3.4,2.3,2.4,2.3,4.2s1.7,4.7,4.4,6.9l4.4,3.4-7,4.4c-15.1,9.6-65.4,30.4-86.1,35.4-13.6,3.3-33.1,2.6-41.2-1.7-6.5-3.3-5.9-3.7,7-5.5,31-4,77.8-22.5,101.2-40,11.3-8.5,11.5-8.5,14.9-7.2h0ZM834.3,283.5c2.7,4.3,1.9,5-2.3,2-1.4-1.1-2.2-2.9-1.6-4.3.6-1.3,1-2.3,1.1-2s1.4,2.2,2.7,4.3h0ZM203.1,294c2.6,2,5.7,3.6,7,3.6,3,0,3,.9-.1,6.9-6.3,11.8-40.3,31.3-67,38.5-17.1,4.6-39.7,5.5-47.9,1.9l-5-2.2,12.5-3c29-7.2,69.6-27,85.4-41.6,4.4-4,8.8-7.5,9.3-7.6.7,0,3.3,1.6,5.9,3.6h0ZM876.1,330.1c.9,2.7.4,3.3-1.7,3.3-3.2,0-4.6-3.7-4.4-11.5v-5l2.6,5c1.4,2.7,3.2,6.5,3.6,8.2ZM198.1,332.4c-4.9,11.9-11,17.8-26.5,25-7.6,3.6-9.9,4-24.2,4-9.8-.1-17.5-.9-20.1-2-4.2-1.7-3.9-1.9,12.2-6,19.1-4.7,41-15.1,53.1-24.8,4.3-3.6,8.3-6.5,8.9-6.5.6-.1-1,4.6-3.3,10.3h0ZM883.1,345.6c1.3,2.9,2.4,5.5,2.4,5.7,0,.4-3.2.7-7.2.7s-7.2-1.6-7.2-4.7c0-5.9.7-6.7,5.7-6.7s4.3,1.1,6.2,5ZM889.8,363c2.7,6.9,2,7.5-7.9,8l-9.3.4v-5.3c0-5.9,1-6.6,9.8-6.7,5.3-.1,6.3.3,7.5,3.6h0ZM152.1,379.1c-7.2,2.2-23,1.7-23.7-.6-.4-1.1,4.2-1.6,14.6-1.4,14.8.1,15.1.1,9,2ZM896.1,382.5c.4,2.4.4,5-.1,5.6-.7.6-6.2,1.3-12.2,1.6l-11.2.7v-5.5c0-6.2.9-6.5,14.5-6.9,8-.1,8.2-.1,9,4.4h0ZM176.3,382.1c1.9,3,.9,8.8-1.6,8.8s-12.2,1-25.3,2.2c-13.1,1.1-24.2,2.2-24.8,2.2-1.4,0,.1-8.8,1.9-10.5.9-1,28.3-4,45.2-5.2,1.6,0,3.6,1,4.6,2.6h0ZM854,412.2c-.9,13.1-2,26.1-2.6,28.8l-1.1,5-6.2-11.2c-6-11-6.2-11.3-4.4-17.9,2.4-9.9,14.6-34.6,15.4-31.3.4,1.4,0,13.3-1,26.5h0ZM901.3,401.4l1.1,5-6,.7c-3.2.4-10.2,1.1-15.5,1.6l-9.8,1v-11.5l11.2-1c6-.4,12.3-1,13.9-1.1,3.7-.6,3.6-.6,5,5.3h0ZM177.4,403.2c.4,2.9.6,5.5.3,5.9-1.1,1-57,5.2-57.8,4.3-.6-.4-.4-3.2,0-6,.9-4.6,1.4-5,6.3-5.2,2.9,0,14.3-.9,25.4-1.9,11-1,21.1-2,22.4-2.2,1.7-.1,2.7,1.4,3.4,5h0ZM904.8,416.9c2.3,8.8,1.9,9-20.9,10.6l-14.1.9v-5.2c0-2.9.9-5.6,1.9-5.9.9-.3,8.2-1.1,16.1-1.9s14.8-1.4,15.2-1.6c.6,0,1.3,1.3,1.9,3ZM179.9,422.4l.4,5.6-7.2.7c-3.9.4-15.9,1.4-26.5,2.3-10.6.9-22.2,1.9-25.7,2.3l-6.3.9,1.1-5.6c.6-3,1.3-5.7,1.6-6,.4-.6,24.5-2.7,59.5-5.7,1.9-.1,2.6,1.3,3,5.6h0ZM908.6,438.6c.4,2.9.4,5.3,0,5.5-6.7.9-40.6,3.4-40.9,3.2s0-2.9.4-5.9l.9-5.3,17.9-1.6c9.9-.9,18.5-1.4,19.4-1.3.7.1,1.9,2.6,2.3,5.5h0ZM828.1,442.2c.9,3.4,3.9,8.8,6.7,11.9,5,5.5,5.2,5.9,3.4,11.2-2.2,7.3-2,13.8.6,22.4,2.3,7.3,1.9,12.9-1.4,19.4-1.6,3-1.6,4.3.1,7.2,3.3,6.2,2.4,12.3-2.4,17.9l-4.6,5.2,3.2,4.3c4.4,5.9,3.6,10.3-2.3,11.5-8,1.6-12.2,6.9-14.1,18.1-1.9,11.2-3,8.8-5.9,12.5-2.7,3.6-4.9,7-4.9,7.6,0,3.3-23.4,21.1-33.1,25.3-5.9,2.7-3.2,3,8.2.9,4.6-.9,11.9-3.4,16.2-5.9l7.7-4.3-1.1,5.6c-1.4,8-7.6,18.5-16.4,28-6,6.6-10.8,9.9-22.5,15.6-10.6,5.2-16.1,7-19.5,6.7-4.3-.4-4.7-.9-4.7-5.3s1.3-6.2,17.9-14.1c2-.9,6.7-3,10.5-4.7,4.6-2.3,6.7-4,6.5-5.6-.3-1.3-1.7-2.2-3.3-2-4.2.3-18.1-6.7-22.5-11.3l-3.7-4,3.3-8.2c1.7-4.4,4.4-8.6,5.9-9.2,1.6-.6,6.6-1.1,11.3-1.1,11.2-.1,18.2-2.2,23.8-6.9,4.3-3.7,4.4-4.2,3.6-11.5-.4-4.3-1-8.5-1.3-9.5-.1-.9,3-2.6,6.9-3.9,9.2-3,12.5-8.3,8.9-14.5-1.9-3.4-1.9-4.3-.3-5.6,1.3-1.1,1.9-4.2,1.7-8.9-.3-7-.1-7.3,7.5-14.1,7.2-6.3,7.6-7.2,6.7-11.6-1.6-8.3-8.3-14.2-16.2-14.2s-7.2,1.6-13.8,10.9c-2.9,4-7.6,9.2-10.5,11.3l-5.2,3.9,1-9.8c.9-8.2,1.9-10.8,5.6-15.1,5.9-6.9,12.3-11.2,19.5-13.3,7.7-2.3,7.5-4.3-.7-4.9-4.6-.3-8.9.6-14.3,3.2-4.2,1.9-8,3.2-8.5,2.6-.4-.4-.9-2.9-.9-5.5,0-3.7.9-5.2,5.2-7.6,2.7-1.7,6.2-3,7.5-3s5-1,8.2-2.2c7-2.4,22.5-2.7,24.8-.4s3.9.3,1.7-2.4c-1.1-1.3-3.7-3.3-5.9-4.4-3.4-1.7-4-2.7-3.3-6.2,1-5-1.4-10.2-4.9-10.2s-3.9-1-5.5-2.2c-2.6-1.9-2.4-2,2.3-2.2,2.7,0,7.3-1.1,10-2.7,2.7-1.4,5.2-2.3,5.3-1.7.1.4,1,3.6,1.9,7h0ZM178.7,438.5c-3,9.9-.3,9-34.3,11.8-17.2,1.3-31.4,2.2-31.7,1.9s-.1-2.9.4-5.7c.6-4.2,1.4-5.3,3.9-5.5,3.2-.1,59.4-5,61.6-5.5.7,0,.7,1.3.1,3h0ZM910.5,453.4c.4,1.3.9,3.7.9,5.6,0,3.9-1.6,4.3-20.8,5.7-6.3.4-14.8,1.1-18.9,1.6l-7.5.9.9-5.5c.4-3.2,1-5.7,1.1-6,.3-.3,9.8-1.3,21.1-2.3,11.2-1.1,20.9-2,21.4-2.2.6,0,1.4.9,1.9,2.2h0ZM170.3,460.7c-1.3,2.9-2.4,5.6-2.9,5.9-.6.6-44.9,4.4-52.1,4.6-4.6,0-4.7-.1-4.3-5.5l.4-5.3,25.8-2.3c14.2-1.3,28-2.4,30.6-2.6h4.6c0-.1-2.2,5.2-2.2,5.2h0ZM342.5,469.3c8,16.6,9.6,26.4,7,43.3-4.4,30.4-14.3,49.6-30,58-8.9,4.7-25.8,4.3-37.3-.9-18.4-8.6-30.4-20.9-34.3-35.7l-2.2-7.6,4.6-4.2c5-4.7,4.2-5.6,9.6,9.3,3.3,8.9,12.3,20.2,18.8,23.7,2.3,1.1,4.2,1.7,4.2,1.3s-2.4-4.2-5.6-8.3c-7.3-9.8-10.9-17.2-12.9-26.5-.9-4.2-1.6-8.2-1.6-8.8s4.9-5.2,10.8-10,10.8-8.3,10.8-7.6-1.7,3.6-3.9,6.7c-3.6,5.2-4,6.9-4,18.2s.3,12.8,4.3,18.5c6.6,9.2,11.2,12.1,19.4,11.9,7.6-.3,19.9-5.3,27.8-11.3,5.3-4,13.2-14.6,11.9-15.9-.4-.6-3.6,1.3-7,4.2-6.2,4.9-11.5,8.2-13.5,8.2s1.6-1.9,4.9-4.2c8.3-6.2,15.1-20.4,15.8-33.4.6-9.5-2.9-25.3-7-33.1-1.1-2-.9-3.2,1.1-4.7,1.4-1,2.7-2,2.7-2,.1,0,2.7,5,5.6,11h0ZM912.5,477.1l-.4,4.9-20.1,1.7c-11,.9-22.8,1.7-26,1.7h-6c0,.1,1.4-5.6,1.4-5.6,1.3-5.2,2-5.7,6-5.9,2.4,0,13.2-.9,23.8-1.9s19.9-1.3,20.5-.7c.7.4,1,3.2.7,5.7h0ZM165.3,477.9c-.1,8.6.4,8.3-28.3,10.6-29,2.2-29.1,2.2-26.7-5.5,1-2.7,7.6-4.5,19.9-5.6,29.8-2.6,35-2.4,35,.4h0ZM912.8,495.3v5.5l-28.3,2.3c-15.6,1.3-28.6,2.2-28.8,1.9s.4-2.9,1.4-5.9l1.9-5.6,18.7-1.6c10.3-.9,22.4-1.7,27-1.7l8.2-.3v5.5h0ZM162.4,499.3c-.7,2.7-1.4,5.3-1.7,5.6-.9,1-49.1,4.7-50.2,4-1.9-1-1.3-10.5.7-10.6.9,0,10.5-.9,21.1-1.9,10.6-1.1,22.1-2,25.3-2.2h6c0-.1-1.1,5-1.1,5ZM912.8,513.5c0,2.9-.9,5.5-1.7,5.7-1,.3-10.6,1.3-21.2,2.2s-22.4,1.9-26.1,2.3l-6.7.9.9-5.6c.4-3,1-5.7,1.3-6,.6-.6,37.4-4,46.9-4.3h6.7c0-.1,0,4.9,0,4.9h0ZM156.1,515.1c-.4,1.3-2.3,4-4.2,6.3-2.9,3.6-4.3,4-15.4,4.9-6.7.6-15.2,1.3-18.9,1.7l-6.9.9v-5.9c0-4.6.6-5.9,2.6-6,1.3,0,10.9-.9,21.1-2,10.3-1,19.5-1.9,20.7-2s1.6.7,1,2.2h0ZM173,526.3c.4,2,2.7,5.5,5.2,7.7,4.3,4.3,4.3,4.4,1.7,8.8-3.2,5.7-6.7,5.7-8.8,0-1.3-3.9-1.9-4.3-3.7-2.7-5,4.2-1.1,14.1,7.9,20.8,13.6,10,32.9,3.7,46.5-15.5,3.6-5,8.2-9.9,10.3-10.9,2.2-.9,3.9-1.4,4-1.3.3.3,1.1,3.2,2.2,6.6,1.7,6.2,1.7,6.3-4,13.8-6,8.2-16.5,15.9-23.2,17.4-5.7,1.3-5.3,3.6.9,3.6,8.8,0,20.4-5.5,28-13.1,7.6-7.6,10.6-6.7,4.7,5.3-7.3,15.2-24.8,29.8-42.3,35.6-1.4.4-2.6,1.9-2.6,3.2,0,3.7,10,1.7,22.5-4.4,10.2-5,10.8-5.2,12.6-2.6,4.9,6.3,4.3,17.4-1,24.1-3.7,4.9-13.1,9.2-19.7,9.3-10,0-16.2-3.2-28.3-14.8-13.1-12.3-16.1-17.6-13.5-22.5,1.4-2.6,2.3-2.9,6.2-1.9,7.6,1.9,17.2,1.3,23.7-1.6,3.3-1.4,5.6-3.3,5.2-3.9-.4-.7-4.2-1.3-8.3-1.3-11.3,0-20.7-3.4-30.6-11.5-11-8.8-15.4-16.5-13.8-24.1.6-2.9.9-5.9.7-6.5s.4-2.6,1.3-4.3c2-3.7,13.1-16.6,14.3-16.8.6,0,1.4,1.6,1.9,3.4ZM911.4,532.7v5.5l-8.2.9c-4.6.6-17.6,1.7-29,2.6l-20.7,1.7-2.6-3.4c-2.4-3.3-2.4-3.6-.1-5.9,1.9-1.7,8.2-2.9,26.8-4.4,36.9-3.2,33.7-3.4,33.7,3.2ZM142.3,534.2c0,.7-1,3.4-2,6.2l-2.2,5-11.8.9c-6.5.6-12.3.6-12.9.1-.7-.4-1.3-2.9-1.3-5.6v-4.7l9-.9c7.7-.7,11.8-1.1,19.4-2.2.9,0,1.7.4,1.7,1.1h0ZM909.2,551.1c-.6,3-1.3,5.7-1.6,6-.9.9-56.5,5.5-56.5,4.6s.7-2.9,1.6-5.9l1.6-5.3,25.4-2.2c13.9-1.1,26.4-2.3,28-2.4,2.3-.1,2.4.6,1.6,5.2h0ZM139.3,558.3c.9,2.9,1.3,5.5,1.1,5.6s-5.9.6-12.8,1.1l-12.6,1v-3.6c0-1.9-.4-4.4-.9-5.7-.9-2.3,2.7-3,16.9-3.4,6.6-.3,6.7-.1,8.2,5ZM906.3,570.5c-.6,2.6-1.4,5.2-2,5.6-.9,1-52.5,5.6-61.6,5.6s-5.6-.9-.6-6.7l3.9-4.7,22.2-2c12.2-1,26-2,30.6-2.2h8.5c0-.1-1,4.4-1,4.4h0ZM148.3,576.5l4,5-7.6.7c-4,.4-11.2,1.1-15.9,1.7-9.3.9-10.9,0-10.9-6.9s1.7-4.7,18.7-5.2c7.5-.3,8.2,0,11.8,4.6h0ZM271.3,590.5c3.2,3.9,7.3,14.2,7.3,17.8s-2.3.4-6.9-2.3c-8-5-17.8-6.5-18.7-2.6-.3,1.6,1.3,3.3,5,5.3,7.5,3.7,15.2,12.2,20.1,21.7,3.6,7.2,4,9.3,4,23s-.3,15.6-3.9,21.8c-4.9,8.2-13.6,15.9-24.1,21.2-11.3,5.7-18.9,6.5-29.4,3.2-8.3-2.7-8.5-2.9-3.3-3,19.2-.6,37.9-9.6,50.4-24.4,6.9-8.3,4.4-9-6.3-1.6-5.5,3.7-14.3,8.8-19.7,10.9-8.3,3.6-11.5,4.2-24,4.2s-22.2-2.3-28.6-9.2-3.6-3-4.7-3c-4.9,0-12.8-25.7-11-35.7,1-5.9,4.3-7.2,9.9-3.7,8.5,5,18.5,7.9,27.8,7.9s5.9.7,6.5,2.3c1.1,2.9,1.1,11.2,0,14.1s-9.9,4.4-17.2,1.6c-3.6-1.3-6.7-2.3-7-2s1.6,3,4.2,6.2c3.9,4.6,5.9,5.6,11.3,6.2,12.8,1.4,29-8.3,35.7-21.7,3.6-7.2,4.9-19.9,2.7-27.4-1-3.2-2.7-9.9-3.7-14.9-1.1-5.2-3.4-10.6-5.2-12.5l-3.2-3.3,6.7-7.5c3.6-4,6.6-8,6.6-8.8,0-1.7,14.3,10.9,18.5,16.4h0ZM902,589.8c-.6,3-1.1,5.6-1.3,5.7-.6.6-66.4,6.2-72.2,6.2h-4.9l3.2-5.7c2.2-3.7,4.3-5.7,6.2-5.9,1.7,0,16.2-1.1,32.4-2.6,41.8-3.7,37.9-4,36.6,2.3h0ZM158.1,594.4v5.6l-10.3.9c-5.7.6-13.5,1.3-17.1,1.7l-6.6.7-1.4-5.7-1.4-5.7,10.9-.9c6-.4,12.2-1,13.8-1.3s5-.6,7.6-.7c4.4-.1,4.6,0,4.6,5.5h0ZM322.7,604.9c-7.2,28.3-4.4,59,9.5,106.6,2.7,9.5,7.7,31.4,11,48.8s6.6,32.9,7.3,34.4c.9,1.7,1.1-7.7.6-24.8-.7-28.4.6-40.6,5.7-56.4,3-8.8,17.8-23.4,26-25.4,14.6-3.7,22.5-3.4,36.2,1.1,26.4,8.9,48.4,8.6,72.5-.9,6.9-2.7,18.2-7.2,25.3-9.9,22.4-8.8,37.6-9.5,51.5-2.3,5.3,2.7,17.9,15.2,25,24.5,3.7,5.2,10.9,30.6,14.1,50.5,1.9,11.9,2.2,62.4.3,67.1-2.3,6-3.4,19.7-2.4,28,.9,6.7,1.6,8,4.4,8.8,4.6,1.1,14.1-6.7,16.4-13.8,1-2.7,5-13.3,8.9-23.5,6.5-16.8,13.8-43,19.2-68.7,1.1-5.5,2.7-11,3.6-12.6,1.4-2.9,1.6-2.9,4.4-.3,4.7,4.3,14.1,18.7,19.4,30,2.6,5.9,7,19.4,9.9,30.3,4.9,18.9,9.9,52.8,8.2,55.4-1.1,1.9-25.5,13.1-44.3,20.4-49.5,19.2-97.7,27.4-153.4,26.1-43-1-74.8-6.3-112.5-18.5-15.5-5-41.8-15.2-41.8-16.1s-1-10.6-2.2-23.2c-3.7-39.3-7-56.8-27-148.4-4.2-19.4-4.4-22.8-4.6-48.8,0-25.8.3-28.6,3.2-34.9,3.3-6.9,7.2-9.5,5.7-3.6h0ZM898.4,604.6c0,.9-.9,3.6-2,6.2l-1.9,4.7-31.4,2.4c-17.4,1.4-34.1,2.9-37.4,3.3l-6.2.9.9-4.7c.6-2.7,1.4-5.5,2.2-6.2s17.5-2.7,37.4-4.4c19.9-1.9,36.7-3.3,37.4-3.4.6,0,1,.6,1,1.3h0ZM160.9,608.8c0,.7.4,3.2.9,5.6l.9,4.3-12.6,1c-7,.4-14.5,1.1-16.6,1.6-3.3.7-4,.1-5.5-4.4-1-2.9-1.4-5.6-1-5.9.7-.7,20.2-2.9,29.4-3.3,2.4,0,4.6.4,4.6,1.1h0ZM892.7,623.8c0,.3-1,2.9-2.2,5.6-2,4.7-2.7,5.2-9.6,5.9-13.3,1.6-58.5,5.2-63.7,5.2h-4.9l2.9-5.7c2.3-4.4,3.7-5.7,6.9-5.9,2.2,0,16.5-1.3,31.9-2.6,29.6-2.7,38.7-3.3,38.7-2.4h0ZM163.8,631.9c0,5-.4,5.7-3.2,5.9-1.9,0-8,.6-13.9,1.1l-10.6,1-2-4.9c-1.1-2.7-1.7-5.3-1.1-5.7.7-.7,15.9-2.4,26.3-3,4.4-.1,4.6,0,4.6,5.6h0ZM883.4,648.7c-1.3,2.9-2.4,5.5-2.6,5.6s-13.5,1.3-29.7,2.6-33.3,2.7-37.9,3.3l-8.5.9,1-4.9c.4-2.6,1.4-5.3,2.2-6,1.3-1.3,53.4-6.3,68.7-6.6h8.9c0-.1-2.2,5.2-2.2,5.2h0ZM164.5,649.9c.4,2.9.7,5.5.3,5.7-.3.3-5.3,1-11.2,1.4l-10.6,1-1.9-5c-.9-2.7-1.7-5.3-1.7-5.9s4.3-1.1,9.8-1.4c5.3-.3,10.6-.6,11.9-.7,1.7-.1,2.7,1.3,3.4,4.9h0ZM793.7,677.6c2.3,16.4-1.3,29.7-11,40.3-7.9,8.9-15.5,11.8-31.9,12.3-9.3.3-14.1,1-15.5,2.4-1.1,1-3.2,6.5-4.6,11.9s-4.3,13.5-6.6,17.8c-4,8-11.9,18.7-13.8,18.7-4.2,0-.9-22.7,5.9-39.2,2.4-6.3,4.9-15.4,5.3-20.5l.9-9.2,4.6,5.5c3.2,3.5,5.7,4.4,7.7,2.6,1.7-1.6,2.7-3.7,2.4-5-.4-1.3-1.1-4-1.6-6.2l-1-3.9,5.5,2.9c3,1.4,7.7,2.7,10.5,2.7,10.2,0,31.7-14.3,31.7-21.2s-1.3-4-7.2.4c-4.9,3.6-12.1,4.7-13.5,2.3-.4-.7.7-1.7,2.7-2.2,4.4-1.1,15.1-10.5,15.1-13.2s-3.7-2.7-5-.6c-1.7,2.7-12.1,7.2-16.9,7.2s-13.9-5-15.1-8.5c-.6-1.6.3-1.9,3.7-1.1,10.3,2.2,32.7-4.4,39.2-11.5l3.4-3.6,1.9,4.4c.9,2.4,2.4,8.9,3.2,14.3h0ZM876.9,662.7c0,.4-1.3,3.3-2.7,6.2l-2.7,5.3-31.9,2.6c-17.4,1.4-32.3,2.2-33.1,1.7-.7-.6-1.3-3.2-1.3-5.9,0-4.6.3-4.9,4.7-5,2.4,0,17.2-1.3,32.6-2.6,33.7-3.2,34.4-3.2,34.4-2.3h0ZM169.4,669l2.9,5.5-9.5,1c-10.3,1-11.5.6-14.5-6.6l-1.6-3.9,7.5-.6c4.2-.3,8.6-.6,9.9-.7,1.6-.1,3.6,1.7,5.3,5.3h0ZM180.2,686.7c4.4,5.7,3.4,6.5-9.2,7-8.9.4-9.3.1-11.8-3.9-3.4-5.5-3.3-6,1.4-6.7,12.1-1.9,15.8-1.1,19.5,3.6h0ZM866.9,682.8c0,.9-4.2,9.5-5,10.5-.4.4-45.8,4.6-51.2,4.6s-4-.4-4-5.6v-5.5l23.4-1.7c12.8-1,24-2,24.7-2.3,2.4-.9,12.2-.7,12.2,0ZM291.2,696.9c6.6,5,8.2,5.6,13.1,4.7l5.5-.9,2.4,11c1.6,7.2,1.9,11.5,1,12.3s-6.2,1.7-12.1,2.2c-15.6,1-30-3.9-43.3-14.6l-4.2-3.4,7.3-3.6c6-3.2,7.6-3.4,8.9-1.9,2.9,3.3,21.4,11.2,25.5,10.6,5.3-.6,5.2-4-.3-6.7-2.3-1.3-7.7-4.3-11.9-7-7.5-4.6-7.6-4.9-5.3-7.5,2.9-3.2,2.7-3.2,13.3,4.7h0ZM195.1,704.9l4.4,5.5-13.2,1-13.2,1-3.2-4c-5.2-6.3-4.3-7.5,5.7-8,4.9-.3,10.2-.6,11.9-.7,1.9-.1,4.6,1.7,7.5,5.3h0ZM853.7,707.3c-1.7,2.9-3.7,5.5-4.7,5.7-1.7.7-45.6,4.7-46.2,4.3-.1-.1.6-2.9,1.6-5.9l2-5.7,17.8-1.6c9.6-.9,20.9-1.7,25.1-1.9h7.5c0-.1-3,5-3,5h0ZM257.5,726.4c3.2,1.7,3.4,2.4,2.3,5.5-.7,1.9-1.3,5-1.3,6.9,0,2.7-.7,3.3-3.7,3.2-6.3-.4-7.3,3.2-3.6,13.2,3.7,9.8,8.6,15.9,12.9,15.9s11.5-6.9,14.5-16.8c1.6-5.2,2.9-11.2,2.9-13.5s.7-4.2,2.7-4.2c3.3,0,4.4,3.7,4.4,14.8s-7.7,24.7-20.1,28.4c-5.3,1.6-6,1.4-11.5-2.3-7.7-5.3-12.3-13.6-14.2-25-1-6.2-2.6-10.5-4.9-12.9-6.3-7.2-7.2-8.9-8-18.1l-1-9.2,6.6-.4c6-.4,6.9,0,12.3,6,3.3,3.6,7.6,7.5,9.6,8.5h0ZM208.9,717.4c1.4.6,2.3,2.6,2.3,5.6,0,4.7,0,4.9-8.2,5.7-4.6.4-10.6,1.1-13.3,1.4-4.4.6-5.5,0-8.5-4.4-1.9-2.7-3.2-5.3-2.7-5.6.4-.4,6.5-1.3,13.5-2,7-.6,13.2-1.3,13.8-1.4.4,0,1.9.3,3.2.7h0ZM840,728c-2.2,3.2-5,5.7-6.2,5.7-1.1.1-11.8,1-23.7,2-11.8,1.1-21.7,1.9-21.8,1.7,0,0,2.3-2.9,5.2-6.2l5.5-6,14.2-1.3c7.7-.7,17.9-1.4,22.5-1.6h8.3c0-.1-4,5.6-4,5.6h0ZM215.6,740.8l3.9,5.5-10.6,1c-10.3,1-10.8.9-14.2-3-5.3-6.2-4.6-7.5,4.7-8,4.4-.3,9.2-.6,10.3-.7s3.9,2.3,5.9,5.3h0ZM825.8,746.9c-2.3,2.6-4.4,5.2-4.9,5.9-.9,1-64,6.7-74.3,6.7h-4.7l2.4-4.2c1.4-2.3,3.9-5,5.6-5.9,2.9-1.6,54.5-6.6,71.6-7h8.6c0-.1-4.3,4.4-4.3,4.4h0ZM229.4,755.6c.9,1,1.7,3.3,2.2,5,1,3.6-1.7,4.7-12.2,4.7s-7.3-.6-10.9-4.7l-4.3-4.6,3.9-.9c7-1.7,19.9-1.4,21.4.4ZM807.9,767.7c-2.6,3-5,5.6-5.2,5.9-.3.6-60.7,5.9-66.7,6-2.3,0-2.2-.6.6-5.5,1.7-2.9,3.3-5.6,3.6-5.9.4-.6,55.4-5.5,65.6-5.7h7.2c0-.1-5,5.2-5,5.2h0ZM234.7,778.4c1.4,6.5-3.6,6.3-10-.3l-5.3-5.5,6.3-.4c6.6-.4,7.6.1,9,6.2h0ZM286.2,787.8c-.7,7.6,3.4,21.7,7.7,26.7,1.4,1.6,7.5,5,13.3,7.7,5.9,2.6,14.1,7.5,18.2,10.6,4,3.3,8,5.5,8.9,5,2-1.3,2.6.3,3.7,11.3l1,10-5.7-5.9c-7-7.3-13.6-11.9-35.2-24.2-19.1-10.9-21.1-13.3-21.1-25.8s-.6-9.2-1.4-10.6c-1-2.2-.1-3.4,4.7-7,3.3-2.4,6-4.4,6.2-4.4.1-.1-.1,2.9-.4,6.6ZM787.2,789c-5.5,4.9-8.3,6.5-12.2,6.5-2.7.1-18.1,1.3-34.1,2.6-27.7,2.4-35.3,2-26.8-1.1,2.2-.9,6-3.2,8.9-5.3,4.7-3.6,6.6-4,33.3-6.3,15.5-1.3,30.4-2.4,33.1-2.4h5c0-.1-7.2,6.2-7.2,6.2h0ZM251.5,794.3l6.3,4.6-4.2,1c-4.4,1.3-8.8-1-14.3-7.2-1.8-2-1.3-3,1.6-3s6.9,1.9,10.6,4.6h0ZM770.7,803.2c0,.3-3.2,3.3-7,6.5-7,5.9-7.2,6-23.4,7.3-8.9.7-18.9,1.7-22.2,2.2l-6.2.7v-5.7c0-3.2.1-5.7.4-5.9.1,0,12.9-1.3,28.3-2.6,15.4-1.4,28.4-2.7,29.1-2.9.6,0,1,.1,1,.4ZM262,809.1c.4,1.1.3,2.2-.4,2.2s-2-1-3-2.2c-1.4-1.7-1.4-2.2.4-2.2s2.4,1,3,2.2ZM743.5,824.7c0,.3-4,3.2-8.9,6.3-5.7,3.6-11.6,6.2-15.8,6.7l-6.9,1v-11.6l7.6-.7c18.5-2,24-2.4,24-1.7h0Z"></path>
  <path d="M651.8,116.3c-8.6,1.7-21.7,6.6-28.7,10.6-7,4.2-15.5,11-14.6,11.8.3.4,6.6-1.7,14.1-4.7,11.6-4.6,15.1-5.3,25-5.3s22.8,2.4,27.4,7.3c2,2.2,5.2,9.2,7.2,16.1,4.3,14.1,8.9,20.2,15.4,20.2,9.2,0,13.9-6.6,13.9-19.8s-5-21.2-12.6-27.5c-10-8.3-30-11.9-46.9-8.6Z"></path>
  <path d="M811.5,318.3c-1.3,2.2-5.3,6.9-9,10.6-5.9,6-6.6,7.5-6.2,12.2l.4,5.5h8.9c5.6.1,10.2,1.1,12.5,2.6,4.6,3,7.2,3,9.6.1,1.6-1.9,1.1-3.7-2.9-11.5-6-11.8-5.6-15.5,1-9.9,5.7,4.9,7.3,3.7,4.2-2.9-2.4-5.2-6.6-8.5-12.6-9.9-2.9-.6-4,0-5.9,3.2h0Z"></path>
  <path d="M197.7,212.4c-8.6,2.9-13.3,7.5-12.6,12.1.6,3.7,4.9,4.7,8.2,1.7,1.3-1.3,6.5-4.3,11.3-6.7,6.3-3,8.9-5.2,8.9-7.2,0-3.6-5-3.4-15.8.1h0Z"></path>
  <path d="M213.6,220.1c-5.9,2-8.8,5.9-6.3,8.3s3.9,1,10.8-.7c5-1.3,10.3-2.3,11.8-2.3s2.3-.9,2-3.3c-.4-2.7-1.4-3.2-6.9-3.4-3.6-.1-8.6.4-11.3,1.4h0Z"></path>
  <path d="M194.2,231.2c-4.4,3.4-6.9,8.8-5.7,11.9,1.9,4.7,23.5.9,27.1-4.9,1.7-2.7-2.2-5.9-5-4.3-3.7,2-3.9,1.9-3.7-1.9.1-4.6-7.2-5.2-12.6-.9Z"></path>
  <path d="M214.9,246.6c0,4,5.3,7.5,11.5,7.5s11.5-3.3,11.5-6.6-1.4-2-5.3-1.9c-3,.1-8.2-.3-11.5-.9-5.6-1-6.2-.9-6.2,1.9Z"></path>
  <path d="M137.8,250.6c-.4,1.1,0,3.9.9,5.9,1,2,1.1,4.2.6,4.7-4.4,4.2-31.1,20.2-44.8,27-8.9,4.4-15.4,8.3-14.1,8.6,5,1,44.8-16.2,63.6-27.5,4.6-2.9,10.3-5.2,12.8-5.2,5.5,0,13.1-4.6,14.3-8.6,1.4-4.6-.1-5.2-7.7-2.3-7.3,2.6-12.2,1.9-15.8-2.6-2.4-2.9-8.6-3-9.8,0h0Z"></path>
  <path d="M293.9,327.7c-5.5,2.2-10.2,7.2-10.2,11.2s1.9,4.7,4.2,7.3c5.7,6.5,14.2,6.3,28.3-.1,9.8-4.4,16.4-5,16.4-1.4s1,1.3,2.2,1.3,2.2-.9,2.2-2c0-2.6-6.7-8-9.8-8s-4.4-2-7-4.6c-4-3.9-5.9-4.6-12.9-5-4.6-.1-10.5.4-13.2,1.4h0Z"></path>
  <path d="M270.8,357.4c0,2.6,17.9,23.5,23.7,27.5,10.3,7,20.2,6.7,30.6-.9,8-5.9,11.9-12.3,11.5-18.8-.7-9.9-9.5-11.2-18.4-2.9-7.9,7.3-14.6,10.8-21.1,10.8s-7.2-.7-15.4-8.6c-8.9-8.6-10.9-9.9-10.9-7.2h0Z"></path>
  <path d="M257.3,363c-2.6,2.7-3.2,7.3-.9,7.3s6-8.3,4.4-9.2c-.6-.4-2.3.4-3.6,1.9Z"></path>
  <path d="M231.4,381.9c-13.5,6.9-18.9,11.8-20.2,17.9-1,5.2,3,10.6,8,10.6s11.5-7.3,12.6-14.5c.9-5.7,2-7.5,7.3-11.5,6-4.6,7.6-7.2,4.9-8-.6-.3-6.3,2.3-12.6,5.5h0Z"></path>
  <path d="M292.6,451.2c-5.9,3.6-13.2,6.7-16.5,7.3-9.9,1.6-11.8,2.3-9.5,3.7,3.4,2.2,17.5,1.4,23.5-1.4,7.7-3.4,18.7-16.1,14.1-15.9-.7,0-5.9,2.9-11.6,6.3h0Z"></path>
  <path d="M513.3,278.9c-11.9,3.6-19.5,7.9-17.5,9.9s3.9.7,7.6-.1c16.2-3.7,37.2-.3,49.4,8.2,5.3,3.7,11.8,13.2,14.9,22.1,1.4,3.9,1.3,3.9-5.7-1.7-9.2-7.2-25.7-12.3-29-9-.6.4,4.7,3.7,11.9,7.3,20.4,9.9,30.3,23.4,31.3,42.6.9,15.5,3.4,16.8,16.1,8.5,19.1-12.6,23.2-19.7,24.4-40.5.7-13.8,1-14.9,4.7-18.4,2.4-2.2,3.7-4.6,3.3-5.9-.4-1.1-.9-2.3-.9-2.6,0-.4-9.2-3.6-20.4-7.2-50.4-16.2-70.6-19.2-90.1-13.2Z"></path>
  <path d="M495.1,318.6c-9.6,4.9-22.8,17.6-27.4,26.8-2.6,4.9-2.7,6.2-1.1,8.3,2.4,3.4,6.2,1.9,8.2-3.2,5-13.2,15.4-26.3,24.8-31.3,2.9-1.6,5.2-3.3,5.2-3.9,0-1.6-.1-1.6-9.6,3.2Z"></path>
  <path d="M519.6,326.8c-6.5,2.2-12.9,5.7-17.4,9.5-3.9,3.3-9.5,7.6-12.3,9.6-12.5,8.5-1.9,7,11.3-1.6,4.7-3,9.3-5.6,10.2-5.6s1.9,2.7,2.3,6c.6,4,2.2,7.3,5.2,10.2,3.7,3.7,5.3,4.4,11.5,4.3,11.5-.1,20.2-7.3,20.2-16.5s8.9,6.5,10.8,16.4c1,5.6,3.3,7.5,6.6,5.5,2.7-1.9-.3-12.8-6-21.1-4.3-6.2-16.2-16.1-19.4-16.2-1,0-3.6-1-5.7-2.2-5-2.6-4.7-2.6-17.2,1.7h0Z"></path>
  <path d="M635.7,394.5c-.9,1.4-8.6,8-17.2,14.5-28,21.5-31.6,26.4-27,38.2,1.3,3.4,3,6.3,3.6,6.3,2,0,3-2.6,1.4-3.6-2.4-1.4-1.6-9.5,1.6-14.5,1.6-2.6,8.6-9.3,15.6-14.9,13.6-10.9,20.2-17.6,23.7-24.4,2.4-4.7,1-6-1.7-1.6Z"></path>
  <path d="M626,428.8c-13.1,6-14.5,7-16.5,11.8-2.3,5.5.4,10,7.3,12.9,6.3,2.7,10,.3,18.8-12.5,6-8.8,6.9-10.6,5.5-13.2-2-3.9-4.7-3.7-15.1,1h0Z"></path>
  <path d="M670.1,435.1c-8.5,9.6-9,12.6-4.4,23.7,2.4,5.9,3.9,7.6,6.3,7.6s3.4-1.3,4.7-6.3c2.2-8.5,2-24.2-.1-26.4s-3.2-2.2-6.5,1.4h0Z"></path>
  <path d="M587.9,509c-8.8,1.4-18.4,4.9-19.1,6.6-.4,1.1-.1,2.9.4,4,1.1,1.6,3.3,1.3,13.2-2,6.6-2.2,14.3-4.2,17.4-4.6,3.3-.6,5.3-1.6,4.9-2.6-.6-1.7-10.3-2.6-16.8-1.4Z"></path>
  <path d="M625.2,509c0,2.9,13.1,9,22.2,10.5,16.6,2.7,30.6,13.3,33.9,26.1,2.3,8.3,1,9.9-4.2,5.2-5-4.9-24.2-14.3-36.3-18.1-10.5-3.3-36.4-6.6-38.9-5.2-.9.6,2.9,3.2,8.3,5.6,14.5,6.7,18.7,10.8,19.9,18.9,1.1,7.6,4,11.9,8.2,11.9s9.5,3.6,17.6,7.9c20.1,10.5,23.4,10.5,32,0,8.8-10.5,8-24.2-2.2-37.4-5.3-7-20.8-18.5-28.1-21.1-10.3-3.6-32.6-6.5-32.6-4.3Z"></path>
</svg></svg></g></g><defs><clipPath id="SvgjsClipPath1159"><rect width="1000" height="1000" x="0" y="0" rx="500" ry="500"></rect></clipPath></defs></svg>